<svg width="9" height="11" viewBox="0 0 9 11" fill="none" xmlns="http://www.w3.org/2000/svg">
<path d="M8.5 0.902501C8.5 1.26403 8.21059 1.55711 7.85358 1.55711C7.49658 1.55711 7.20717 1.26403 7.20717 0.902501C7.20717 0.540972 7.49658 0.247894 7.85358 0.247894C8.21059 0.247894 8.5 0.540972 8.5 0.902501Z" fill="#61481C"/>
<ellipse cx="0.646416" cy="1.22098" rx="0.646416" ry="0.654606" fill="#61481C"/>
<path d="M6.79587 7.44392C6.79587 8.13792 6.52345 8.8035 6.03854 9.29423C5.55364 9.78497 4.89597 10.0607 4.2102 10.0607C3.52444 10.0607 2.86677 9.78497 2.38187 9.29423C1.89696 8.8035 1.62454 8.13792 1.62454 7.44392L4.2102 7.44392H6.79587Z" fill="#61481C"/>
</svg>
