<svg width="50" height="52" viewBox="0 0 50 52" fill="none" xmlns="http://www.w3.org/2000/svg">
<path d="M25.0012 16.4974C19.8349 16.4974 15.6258 20.8404 15.6258 26.1709C15.6258 31.5014 19.8349 35.8443 25.0012 35.8443C30.1675 35.8443 34.3767 31.5014 34.3767 26.1709C34.3767 20.8404 30.1675 16.4974 25.0012 16.4974ZM49.0649 24.609L39.8164 19.8428L43.088 9.72601C43.5275 8.3556 42.2677 7.05573 40.9493 7.51925L31.1441 10.8949L26.515 1.34235C25.8899 0.0525515 24.1125 0.0525515 23.4875 1.34235L18.8681 10.8848L9.05317 7.50917C7.72498 7.05573 6.46516 8.3556 6.9144 9.71593L10.186 19.8328L0.937546 24.609C-0.312515 25.2539 -0.312515 27.0878 0.937546 27.7327L10.186 32.4989L6.9144 42.6258C6.47492 43.9962 7.73475 45.2961 9.05317 44.8326L18.8583 41.457L23.4777 50.9994C24.1027 52.2892 25.8802 52.2892 26.5052 50.9994L31.1246 41.457L40.9297 44.8326C42.2579 45.286 43.5177 43.9862 43.0685 42.6258L39.7969 32.509L49.0453 27.7428C50.3149 27.0878 50.3149 25.2539 49.0649 24.609ZM33.8395 35.2901C28.9662 40.3183 21.0362 40.3183 16.1629 35.2901C11.2896 30.2619 11.2896 22.0798 16.1629 17.0516C21.0362 12.0235 28.9662 12.0235 33.8395 17.0516C38.7128 22.0798 38.7128 30.2619 33.8395 35.2901Z" fill="#FED50D"/>
</svg>
